inDegrees=no
num_controls=7
num_derivatives=13
num_iterations=111
num_multipliers=7
num_parameters=0
num_slacks=7
num_states=26
objective=4.989252
objective_accelerations=0.703965
objective_balance=0.058237
objective_effort=0.691245
objective_height=3.442142
objective_ligament=0.093664
solver_duration=1173.833398
status=Solve_Succeeded
success=true
DataType=double
version=3
OpenSimVersion=4.4-2022-07-23-0e9fedc
endheader
time	/jointset/ground_pelvis/pelvis_tilt/value	/jointset/ground_pelvis/pelvis_tx/value	/jointset/ground_pelvis/pelvis_ty/value	/jointset/hip_l/hip_flexion_l/value	/jointset/hip_l/hip_adduction_l/value	/jointset/hip_l/hip_rotation_l/value	/jointset/back/lumbar_extension/value	/jointset/patellofemoral_l/patellar_flexion_l/value	/jointset/knee_l/knee_flexion_l/value	/jointset/knee_l/knee_adduction_l/value	/jointset/knee_l/knee_rotation_l/value	/jointset/ankle_l/ankle_angle_l/value	/jointset/subtalar_l/subtalar_angle_l/value	/jointset/ground_pelvis/pelvis_tilt/speed	/jointset/ground_pelvis/pelvis_tx/speed	/jointset/ground_pelvis/pelvis_ty/speed	/jointset/hip_l/hip_flexion_l/speed	/jointset/hip_l/hip_adduction_l/speed	/jointset/hip_l/hip_rotation_l/speed	/jointset/back/lumbar_extension/speed	/jointset/patellofemoral_l/patellar_flexion_l/speed	/jointset/knee_l/knee_flexion_l/speed	/jointset/knee_l/knee_adduction_l/speed	/jointset/knee_l/knee_rotation_l/speed	/jointset/ankle_l/ankle_angle_l/speed	/jointset/subtalar_l/subtalar_angle_l/speed	/forceset/tau_hip_flexion_l	/forceset/tau_hip_adduction_l	/forceset/tau_hip_rotation_l	/forceset/tau_knee_flexion_l	/forceset/tau_ankle_angle_l	/forceset/tau_subtalar_angle_l	/forceset/tau_lumbar_extension	lambda_cid13_p0	lambda_cid13_p1	lambda_cid13_p2	lambda_cid13_p3	lambda_cid13_p4	lambda_cid13_p5	lambda_cid14_p0	/jointset/ground_pelvis/pelvis_tilt/accel	/jointset/ground_pelvis/pelvis_tx/accel	/jointset/ground_pelvis/pelvis_ty/accel	/jointset/hip_l/hip_flexion_l/accel	/jointset/hip_l/hip_adduction_l/accel	/jointset/hip_l/hip_rotation_l/accel	/jointset/back/lumbar_extension/accel	/jointset/patellofemoral_l/patellar_flexion_l/accel	/jointset/knee_l/knee_flexion_l/accel	/jointset/knee_l/knee_adduction_l/accel	/jointset/knee_l/knee_rotation_l/accel	/jointset/ankle_l/ankle_angle_l/accel	/jointset/subtalar_l/subtalar_angle_l/accel	gamma_cid13_p0	gamma_cid13_p1	gamma_cid13_p2	gamma_cid13_p3	gamma_cid13_p4	gamma_cid13_p5	gamma_cid14_p0
1	-0.1341701166985346	-0.06015324506889719	0.4247232831312229	2.08984784564762	-0.2622520346623423	0.2909041507742477	-0.9599212810817206	2.092910141164247	2.092910141164244	0.03819323431545067	-0.174529238495835	0.282726667760186	0.1518726802976614	0.0338333474544416	0.00321727817651076	0.07299926032811725	-0.2663407529946929	-0.04007060975934564	-0.07004623802061954	0.000165797369585272	-0.1423611690923831	-0.1423611690923613	-0.01281131584925104	-3.811155137560055e-05	0.08522805130106594	-0.006751526822455486	-0.4149878114391505	-0.04061837682592673	0.004707025652533877	-0.4463912781001762	0.07361459921769159	-0.02420855879010824	0.4564448967707044	-36.76481403165361	22.69962475311414	-10.63952673335151	26.00956687791428	-857.7928960390933	-77.023541754148	-0.02238656196853256	-0.4023076695176625	-0.5622193826854253	2.633770392183563	-7.725282398676308	-1.33467891676895	-2.934170466916297	-0.02459665686956121	-6.845758459000542	-6.845758459000787	-0.8586527158419113	-0.03412390302282738	0.8607714501714473	-1.306469337862332	-2.104856478157346e-08	5.155483504636907e-08	-1.172523345801853e-07	5.254803995029809e-09	-2.98366938199503e-08	1.286073928125067e-07	-5.394140688006901e-09
1.01	-0.1338518828769307	-0.06014909346673567	0.425585238054864	2.086797407417209	-0.262718082615062	0.290057924824151	-0.9599205653891464	2.091143593468257	2.091143593468271	0.03802188912109753	-0.1745295602007154	0.2836218657757012	0.1517415988965685	0.02983937878743784	-0.002371825376927088	0.09941597262056466	-0.343792980943614	-0.05310202326113508	-0.09918976388046877	-6.476370910738101e-06	-0.2110152917432467	-0.2110152917432237	-0.02146963247843613	-2.628731480541871e-05	0.09375364809682621	-0.01945381819653664	-0.4155023393302811	-0.04041687172143981	0.004782766651571545	-0.4477268387857586	0.07366247830460279	-0.02394156606367208	0.4572670841241696	-36.78982294858167	22.60659629820449	-10.64588194929418	25.82320666651779	-858.8990548184601	-77.20588713518646	-0.0225202269483599	-0.3940554620985426	-0.5549903278440711	2.64924895799334	-7.762114984294711	-1.281800778507413	-2.903078512700233	-0.01111536652406684	-6.885274857031167	-6.885274857030736	-0.8712117666564444	0.01880381319927574	0.8397638323134633	-1.250458085650417	-2.230454708326841e-08	4.17196248981819e-08	-1.377363631180861e-07	-2.143544914817282e-08	-4.941644881471261e-08	1.598444432542712e-07	-1.271106982288581e-08
1.02	-0.1335728115413647	-0.0602003797973427	0.426712085563474	2.082971062509077	-0.2633133303451201	0.2889205366420222	-0.9599210869605193	2.088688497407977	2.088688497407974	0.03776360263446741	-0.1745297700179494	0.2846005817667791	0.1514838247720411	0.0260008502481943	-0.007870308377198269	0.1259777773218677	-0.4215220885443079	-0.06591056522786161	-0.1282786844275603	-8.165546675752809e-05	-0.2800708419501882	-0.2800708419501625	-0.03019957431560642	-1.573403013731301e-05	0.1019316464139861	-0.03209007150939274	-0.4160168672213062	-0.04021536661692832	0.004858507650760094	-0.4490623994713406	0.07371035739148225	-0.02367457333722119	0.4580892714777268	-36.80335339604516	22.51791364496052	-10.66018828862478	25.62317556246109	-859.894648041046	-77.24847058199173	-0.02269900645421292	-0.3712196439655094	-0.5440952720521817	2.662788873954679	-7.780658329030919	-1.290104609756258	-2.923249404364806	-0.005177727940761177	-6.92604397021619	-6.926043970216171	-0.8729777574388878	-0.03437809340306352	0.7912517544511525	-1.293261725617282	-2.487019322571756e-08	3.168815673550353e-08	-1.593126106114994e-07	-4.254594696125924e-08	-6.702328913497042e-08	1.870241556993211e-07	-1.913747392306861e-08
1.03	-0.13333108846494	-0.06030607451928014	0.4281052129461372	2.078366303970752	-0.264035294497474	0.2874927373348394	-0.959921907170045	2.085541010173684	2.085541010173666	0.03741774069234056	-0.1745299051055464	0.2856589823851963	0.1511001520521524	0.02239488244940737	-0.01324138606880464	0.1526658406582066	-0.4994512858741106	-0.07841864437272446	-0.1572495018817852	-6.907964789976169e-05	-0.3494776883881906	-0.3494776883881717	-0.03897822529513358	-1.132289393515344e-05	0.1096558080785246	-0.04461795519196834	-0.4164795622952998	-0.03994726569433497	0.004972664953078879	-0.4505213019952571	0.07398836385060771	-0.02324667547621635	0.4589247073044578	-36.71592610019498	22.33559981380106	-10.6526316346612	25.22424148047955	-860.8329808209538	-77.38781620369284	-0.02293215374211886	-0.3476304257687249	-0.5295393742371606	2.674519252005735	-7.802313541599398	-1.221582442060615	-2.87926953247995	0.006471253693400873	-6.95566235296617	-6.955662352967162	-0.8811319278255765	0.01781385813014867	0.7490911730987859	-1.228554834431325	-2.744920328490911e-08	2.165468594002422e-08	-1.809000031962954e-07	-6.35995084954669e-08	-8.460999767283533e-08	2.141624667362411e-07	-2.555479103310143e-08
